<svg xmlns="http://www.w3.org/2000/svg" viewBox="0 0 2215.12 899.11"><defs><style>.cls-1{fill:#eaebea;}</style></defs><title>backptrn</title><g id="Layer_2" data-name="Layer 2"><g id="Layer_1-2" data-name="Layer 1"><rect class="cls-1" x="1073.6" y="15.39" width="28.45" height="28.45"/><polygon class="cls-1" points="1073.6 43.84 1045.15 58.17 1045.15 29.72 1073.6 15.39 1073.6 43.84"/><rect class="cls-1" x="1881.88" y="15.39" width="28.45" height="28.45"/><polygon class="cls-1" points="1881.88 43.84 1853.44 58.17 1853.44 29.72 1881.88 15.39 1881.88 43.84"/><rect class="cls-1" x="871.53" y="179.8" width="28.45" height="28.45"/><polygon class="cls-1" points="871.53 208.25 843.08 222.58 843.08 194.14 871.53 179.81 871.53 208.25"/><rect class="cls-1" x="655.23" y="14.33" width="28.45" height="28.45"/><polygon class="cls-1" points="712.12 28.45 683.68 42.78 683.68 14.33 712.12 0 712.12 28.45"/><polygon class="cls-1" points="655.23 42.78 626.79 57.11 626.79 28.66 655.23 14.33 655.23 42.78"/><rect class="cls-1" x="1463.52" y="14.33" width="28.45" height="28.45"/><polygon class="cls-1" points="1520.41 28.45 1491.96 42.78 1491.96 14.33 1520.41 0 1520.41 28.45"/><polygon class="cls-1" points="1463.52 42.78 1435.07 57.11 1435.07 28.66 1463.52 14.33 1463.52 42.78"/><rect class="cls-1" x="1261.45" y="180.33" width="28.45" height="28.45"/><polygon class="cls-1" points="1318.34 194.45 1289.89 208.78 1289.89 180.33 1318.34 166 1318.34 194.45"/><polygon class="cls-1" points="1261.45 208.78 1233 223.11 1233 194.66 1261.45 180.33 1261.45 208.78"/><rect class="cls-1" x="1679.81" y="179.8" width="28.45" height="28.45"/><polygon class="cls-1" points="1679.81 208.25 1651.37 222.58 1651.37 194.14 1679.81 179.81 1679.81 208.25"/><rect class="cls-1" x="230.52" y="14.33" width="28.45" height="28.45"/><polygon class="cls-1" points="287.41 28.45 258.96 42.78 258.96 14.33 287.41 0 287.41 28.45"/><polygon class="cls-1" points="230.52 42.78 202.07 57.11 202.07 28.66 230.52 14.33 230.52 42.78"/><rect class="cls-1" x="28.45" y="180.33" width="28.45" height="28.45"/><polygon class="cls-1" points="85.34 194.45 56.89 208.78 56.89 180.33 85.34 166 85.34 194.45"/><polygon class="cls-1" points="28.45 208.78 0 223.11 0 194.66 28.45 180.33 28.45 208.78"/><rect class="cls-1" x="446.81" y="179.8" width="28.45" height="28.45"/><polygon class="cls-1" points="446.81 208.25 418.37 222.58 418.37 194.14 446.81 179.81 446.81 208.25"/><rect class="cls-1" x="1981.23" y="180.33" width="28.45" height="28.45"/><polygon class="cls-1" points="2038.12 194.45 2009.68 208.78 2009.68 180.33 2038.12 166 2038.12 194.45"/><polygon class="cls-1" points="1981.23 208.78 1952.79 223.11 1952.79 194.66 1981.23 180.33 1981.23 208.78"/><rect class="cls-1" x="2158.23" y="18.33" width="28.45" height="28.45"/><polygon class="cls-1" points="2215.12 32.45 2186.68 46.78 2186.68 18.33 2215.12 4 2215.12 32.45"/><polygon class="cls-1" points="2158.23 46.78 2129.79 61.11 2129.79 32.66 2158.23 18.33 2158.23 46.78"/><rect class="cls-1" x="1073.6" y="353.39" width="28.45" height="28.45"/><polygon class="cls-1" points="1073.6 381.83 1045.15 396.17 1045.15 367.72 1073.6 353.39 1073.6 381.83"/><rect class="cls-1" x="1881.88" y="353.39" width="28.45" height="28.45"/><polygon class="cls-1" points="1881.88 381.83 1853.44 396.17 1853.44 367.72 1881.88 353.39 1881.88 381.83"/><rect class="cls-1" x="871.53" y="517.8" width="28.45" height="28.45"/><polygon class="cls-1" points="871.53 546.25 843.08 560.58 843.08 532.14 871.53 517.8 871.53 546.25"/><rect class="cls-1" x="655.23" y="352.33" width="28.45" height="28.45"/><polygon class="cls-1" points="712.12 366.45 683.68 380.78 683.68 352.33 712.12 338 712.12 366.45"/><polygon class="cls-1" points="655.23 380.78 626.79 395.11 626.79 366.66 655.23 352.33 655.23 380.78"/><rect class="cls-1" x="1463.52" y="352.33" width="28.45" height="28.45"/><polygon class="cls-1" points="1520.41 366.45 1491.96 380.78 1491.96 352.33 1520.41 338 1520.41 366.45"/><polygon class="cls-1" points="1463.52 380.78 1435.07 395.11 1435.07 366.66 1463.52 352.33 1463.52 380.78"/><rect class="cls-1" x="1261.45" y="518.33" width="28.45" height="28.45"/><polygon class="cls-1" points="1318.34 532.45 1289.89 546.78 1289.89 518.33 1318.34 504 1318.34 532.45"/><polygon class="cls-1" points="1261.45 546.78 1233 561.11 1233 532.66 1261.45 518.33 1261.45 546.78"/><rect class="cls-1" x="1679.81" y="517.8" width="28.45" height="28.45"/><polygon class="cls-1" points="1679.81 546.25 1651.37 560.58 1651.37 532.14 1679.81 517.8 1679.81 546.25"/><rect class="cls-1" x="230.52" y="352.33" width="28.45" height="28.45"/><polygon class="cls-1" points="287.41 366.45 258.96 380.78 258.96 352.33 287.41 338 287.41 366.45"/><polygon class="cls-1" points="230.52 380.78 202.07 395.11 202.07 366.66 230.52 352.33 230.52 380.78"/><rect class="cls-1" x="28.45" y="518.33" width="28.45" height="28.45"/><polygon class="cls-1" points="85.34 532.45 56.89 546.78 56.89 518.33 85.34 504 85.34 532.45"/><polygon class="cls-1" points="28.45 546.78 0 561.11 0 532.66 28.45 518.33 28.45 546.78"/><rect class="cls-1" x="446.81" y="517.8" width="28.45" height="28.45"/><polygon class="cls-1" points="446.81 546.25 418.37 560.58 418.37 532.14 446.81 517.8 446.81 546.25"/><rect class="cls-1" x="1981.23" y="518.33" width="28.45" height="28.45"/><polygon class="cls-1" points="2038.12 532.45 2009.68 546.78 2009.68 518.33 2038.12 504 2038.12 532.45"/><polygon class="cls-1" points="1981.23 546.78 1952.79 561.11 1952.79 532.66 1981.23 518.33 1981.23 546.78"/><rect class="cls-1" x="2158.23" y="356.33" width="28.45" height="28.45"/><polygon class="cls-1" points="2215.12 370.45 2186.68 384.78 2186.68 356.33 2215.12 342 2215.12 370.45"/><polygon class="cls-1" points="2158.23 384.78 2129.79 399.11 2129.79 370.66 2158.23 356.33 2158.23 384.78"/><rect class="cls-1" x="1073.6" y="691.39" width="28.45" height="28.45"/><polygon class="cls-1" points="1073.6 719.84 1045.15 734.17 1045.15 705.72 1073.6 691.39 1073.6 719.84"/><rect class="cls-1" x="1881.88" y="691.39" width="28.45" height="28.45"/><polygon class="cls-1" points="1881.88 719.84 1853.44 734.17 1853.44 705.72 1881.88 691.39 1881.88 719.84"/><rect class="cls-1" x="871.53" y="855.8" width="28.45" height="28.45"/><polygon class="cls-1" points="871.53 884.25 843.08 898.58 843.08 870.14 871.53 855.8 871.53 884.25"/><rect class="cls-1" x="655.23" y="690.33" width="28.45" height="28.45"/><polygon class="cls-1" points="712.12 704.45 683.68 718.78 683.68 690.33 712.12 676 712.12 704.45"/><polygon class="cls-1" points="655.23 718.78 626.79 733.11 626.79 704.66 655.23 690.33 655.23 718.78"/><rect class="cls-1" x="1463.52" y="690.33" width="28.45" height="28.45"/><polygon class="cls-1" points="1520.41 704.45 1491.96 718.78 1491.96 690.33 1520.41 676 1520.41 704.45"/><polygon class="cls-1" points="1463.52 718.78 1435.07 733.11 1435.07 704.66 1463.52 690.33 1463.52 718.78"/><rect class="cls-1" x="1261.45" y="856.33" width="28.45" height="28.45"/><polygon class="cls-1" points="1318.34 870.45 1289.89 884.78 1289.89 856.33 1318.34 842 1318.34 870.45"/><polygon class="cls-1" points="1261.45 884.78 1233 899.11 1233 870.66 1261.45 856.33 1261.45 884.78"/><rect class="cls-1" x="1679.81" y="855.8" width="28.45" height="28.45"/><polygon class="cls-1" points="1679.81 884.25 1651.37 898.58 1651.37 870.14 1679.81 855.8 1679.81 884.25"/><rect class="cls-1" x="230.52" y="690.33" width="28.45" height="28.45"/><polygon class="cls-1" points="287.41 704.45 258.96 718.78 258.96 690.33 287.41 676 287.41 704.45"/><polygon class="cls-1" points="230.52 718.78 202.07 733.11 202.07 704.66 230.52 690.33 230.52 718.78"/><rect class="cls-1" x="28.45" y="856.33" width="28.45" height="28.45"/><polygon class="cls-1" points="85.34 870.45 56.89 884.78 56.89 856.33 85.34 842 85.34 870.45"/><polygon class="cls-1" points="28.45 884.78 0 899.11 0 870.66 28.45 856.33 28.45 884.78"/><rect class="cls-1" x="446.81" y="855.8" width="28.45" height="28.45"/><polygon class="cls-1" points="446.81 884.25 418.37 898.58 418.37 870.14 446.81 855.8 446.81 884.25"/><rect class="cls-1" x="1981.23" y="856.33" width="28.45" height="28.45"/><polygon class="cls-1" points="2038.12 870.45 2009.68 884.78 2009.68 856.33 2038.12 842 2038.12 870.45"/><polygon class="cls-1" points="1981.23 884.78 1952.79 899.11 1952.79 870.66 1981.23 856.33 1981.23 884.78"/><rect class="cls-1" x="2158.23" y="694.33" width="28.45" height="28.45"/><polygon class="cls-1" points="2215.12 708.45 2186.68 722.78 2186.68 694.33 2215.12 680 2215.12 708.45"/><polygon class="cls-1" points="2158.23 722.78 2129.79 737.11 2129.79 708.66 2158.23 694.33 2158.23 722.78"/></g></g></svg>