<svg xmlns="http://www.w3.org/2000/svg" xmlns:xlink="http://www.w3.org/1999/xlink" viewBox="0 0 246.43 45.62"><defs><style>.cls-1{fill:url(#linear-gradient);}.cls-2{fill:url(#linear-gradient-6);}.cls-3{fill:url(#linear-gradient-8);}</style><linearGradient id="linear-gradient" x1="-21.88" y1="11.74" x2="232.26" y2="11.74" gradientUnits="userSpaceOnUse"><stop offset="0" stop-color="#2460fb"/><stop offset="0.48" stop-color="#e32efb"/><stop offset="1" stop-color="#f1517d"/></linearGradient><linearGradient id="linear-gradient-6" x1="-21.88" y1="11.77" x2="232.26" y2="11.77" xlink:href="#linear-gradient"/><linearGradient id="linear-gradient-8" x1="-21.88" y1="22.86" x2="232.26" y2="22.86" xlink:href="#linear-gradient"/></defs><title>gradient</title><g id="Layer_2" data-name="Layer 2"><g id="Layer_1-2" data-name="Layer 1"><g id="logogradient"><path class="cls-1" d="M85.66,16.7H80.34v6.61H75.11V.17H85.16c6.05,0,9.49,2.91,9.49,8,0,3.57-1.52,6.15-4.33,7.47l4.93,7.64H89.33Zm-.5-4.36c2.88,0,4.53-1.32,4.53-4S88,4.5,85.16,4.5H80.34v7.84Z"/><path class="cls-1" d="M107.58,4.5v5h11.18v4.33H107.58V19h12.76v4.33h-18V.17H120V4.5Z"/><path class="cls-1" d="M132.32,4.5v5.69h10.45v4.36H132.32v8.76h-5.22V.17h16.63l0,4.33Z"/><path class="cls-1" d="M160,16.7h-5.32v6.61h-5.22V.17h10.05c6.05,0,9.49,2.91,9.49,8,0,3.57-1.52,6.15-4.33,7.47l4.93,7.64h-5.92Zm-.5-4.36c2.88,0,4.53-1.32,4.53-4s-1.65-3.87-4.53-3.87h-4.83v7.84Z"/><path class="cls-1" d="M180.56,18.81l-1.82,4.5h-5.39L183.4.17h5.39l9.89,23.15h-5.59l-1.82-4.5ZM186,5.62l-3.67,9h7.31Z"/><path class="cls-2" d="M222.92,3.84l-3,3.7a8.38,8.38,0,0,0-6-3,7,7,0,0,0-7,7.11,7,7,0,0,0,7,7.14,8.93,8.93,0,0,0,6-2.71L223,19.41a13.55,13.55,0,0,1-9.36,4.13,11.75,11.75,0,0,1-12.14-11.84C201.46,5,206.78,0,213.79,0A13.17,13.17,0,0,1,222.92,3.84Z"/><path class="cls-1" d="M239.35,4.6V23.31h-5.22V4.6h-7V.17h19.34V4.6Z"/><polygon class="cls-3" points="43.09 11.36 23.01 11.36 21.89 11.36 21.2 11.71 0 22.39 0 45.62 22.32 34.37 42.4 34.37 43.52 34.37 44.21 34.02 65.41 23.34 65.41 0.11 43.09 11.36"/></g></g></g>
</svg>
